# AST/ASF file generated using VICON BodyLanguage
# -----------------------------------------------
:version 1.10
:name VICON
:units
  mass 1.0
  length 0.45
  angle deg
:documentation
   .ast/.asf automatically generated from VICON data using
   VICON BodyBuilder and BodyLanguage model FoxedUp or BRILLIANT.MOD
:root
   order TX TY TZ RX RY RZ
   axis XYZ
   position 0 0 0  
   orientation 0 0 0 
:bonedata
  begin
     id 1 
     name lhipjoint
     direction 0.64773 -0.699417 0.302095 
     length 2.48597 
     axis 0 0 0  XYZ
  end
  begin
     id 2 
     name lfemur
     direction 0.34202 -0.939693 0  
     length 6.71947  
     axis 0 0 20  XYZ
    dof rx ry rz
    limits (-160.0 20.0)
           (-70.0 70.0)
           (-60.0 70.0)
  end
  begin
     id 3 
     name ltibia
     direction 0.34202 -0.939693 0   
     length 8.08777   
     axis 0 0 20   XYZ
    dof rx
    limits (-10.0 170.0)
  end
  begin
     id 4 
     name lfoot
     direction 0.0808503 -0.222134 0.971658   
     length 2.08264   
     axis -90 7.62852e-016 20   XYZ
    dof rx rz
    limits (-45.0 90.0)
           (-70.0 20.0)
  end
  begin
     id 5 
     name ltoes
     direction 1.53502e-011 -4.22007e-011 1   
     length 1.04662   
     axis -90 7.62852e-016 20   XYZ
    dof rx
    limits (-90.0 20.0)
  end
  begin
     id 6 
     name rhipjoint
     direction -0.610924 -0.726792 0.313919   
     length 2.39233  
     axis 0 0 0  XYZ 
  end
  begin
     id 7 
     name rfemur
     direction -0.34202 -0.939693 0   
     length 6.96955   
     axis 0 0 -20   XYZ
    dof rx ry rz
    limits (-160.0 20.0)
           (-70.0 70.0)
           (-70.0 60.0)
  end
  begin
     id 8 
     name rtibia
     direction -0.34202 -0.939693 0   
     length 8.19584   
     axis 0 0 -20   XYZ
    dof rx
    limits (-10.0 170.0)
 end
 begin
     id 9 
     name rfoot
     direction -0.077777 -0.213691 0.9738   
     length 2.07539  
     axis -90 -7.62852e-016 -20   XYZ
    dof rx rz
    limits (-45.0 90.0)
           (-20.0 70.0)
  end
  begin
     id 10 
     name rtoes
     direction -1.53558e-011 -4.22006e-011 1   
     length 1.04381   
     axis -90 -7.62852e-016 -20   XYZ
    dof rx
    limits (-90.0 20.0)
  end
  begin
     id 11 
     name lowerback
     direction -0.00971646 0.996074 0.0879841   
     length 1.67643   
     axis 0 0 0   XYZ
    dof rx ry rz
    limits (-20.0 45.0)
           (-30.0 30.0)
           (-30.0 30.0)
  end
  begin
     id 12 
     name upperback
     direction 0.0127391 0.991676 0.128127   
     length 1.63741   
     axis 0 0 0   XYZ
    dof rx ry rz
    limits (-20.0 45.0)
           (-30.0 30.0)
           (-30.0 30.0)
  end
  begin
     id 13 
     name thorax
     direction 0.0167583 0.996049 0.0872067   
     length 1.65931   
     axis 0 0 0   XYZ
    dof rx ry rz
    limits (-20.0 45.0)
           (-30.0 30.0)
           (-30.0 30.0)
  end
  begin
     id 14 
     name lowerneck
     direction -0.0317829 0.998312 0.0486079   
     length 1.79021   
     axis 0 0 0   XYZ
    dof rx ry rz
    limits (-20.0 45.0)
           (-30.0 30.0)
           (-30.0 30.0)
  end
  begin
     id 15 
     name upperneck
     direction 0.0896851 0.972452 -0.215159   
     length 1.78797   
     axis 0 0 0   XYZ
    dof rx ry rz
    limits (-20.0 45.0)
           (-30.0 30.0)
           (-30.0 30.0)
  end
  begin
     id 16
     name head
     direction 0.0310949 0.996503 -0.0775582  
     length 1.81549  
     axis 0 0 0   XYZ
    dof rx ry rz
    limits (-20.0 45.0)
           (-30.0 30.0)
           (-30.0 30.0)
  end
  begin
     id 17 
     name lclavicle
     direction 0.853638 0.502051 -0.138733  
     length 3.31627  
     axis 0 0 0   XYZ
    dof ry rz
    limits (-20.0 10.0)
           (0.0 20.0)
  end
  begin
     id 18 
     name lhumerus
     direction 1 -4.48962e-011 -1.41788e-018   
     length 5.54893   
     axis 180 -30 -90   XYZ
    dof rx ry rz
    limits (-60.0 90.0)
           (-90.0 90.0)
           (-90.0 90.0)
  end
  begin
     id 19
     name lradius
     direction 1 -4.48962e-011 -4.95754e-027   
     length 3.02898   
     axis 180 -30 -90   XYZ
    dof rx
    limits (-10.0 170.0)
  end
  begin
     id 20
     name lwrist
     direction 1 -4.48952e-011 -1.03764e-026   
     length 1.51449   
     axis 9.09556e-015 90 90   XYZ
    dof ry
    limits (-180.0 0.0)
 end
  begin
     id 21 
     name lhand
     direction 1 -4.4902e-011 -2.07528e-026   
     length 0.640951   
     axis 1.3242e-014 90 90   XYZ
    dof rx rz
    limits (-90.0 90.0)
           (-45.0 45.0)
  end
  begin
     id 22 
     name lfingers
     direction 1 -4.49014e-011 -4.15056e-026   
     length 0.516751   
     axis 2.64841e-014 90 90   XYZ
    dof rx
    limits (0.0 90.0)
  end
  begin
     id 23
     name lthumb
     direction 0.707107 -6.35008e-011 0.707107   
     length 0.741954   
     axis -90 45 2.85299e-015   XYZ
    dof rx rz
    limits (-45.0 45.0)
           (-45.0 45.0)
  end
  begin
     id 24 
     name rclavicle
     direction -0.888531 0.455324 -0.0565039   
     length 3.20126  
     axis 0 0 0   XYZ 
    dof ry rz
    limits (-10.0 20.0)
           (-20.0 0.0)
  end
  begin
     id 25 
     name rhumerus
     direction -1 -4.48946e-011 -8.98298e-028  
     length 5.3519   
     axis 180 30 90   XYZ
    dof rx ry rz
    limits (-90.0 60.0)
           (-90.0 90.0)
           (-90.0 90.0)
  end
  begin
     id 26 
     name rradius
     direction -1 -4.4899e-011 -3.18779e-027   
     length 3.02531   
     axis 180 30 90   XYZ
    dof rx
    limits (-10.0 170.0)
  end
  begin
     id 27 
     name rwrist
     direction -1 -4.4897e-011 -1.03764e-026   
     length 1.51266   
     axis 9.09556e-015 -90 -90   XYZ
    dof ry
    limits (-180.0 0.0)
  end
  begin
     id 28
     name rhand
     direction -1 -4.48941e-011 -2.07528e-026   
     length 0.78389   
     axis 1.3242e-014 -90 -90   XYZ
    dof rx rz
    limits (-90.0 90.0)
           (-45.0 45.0)
  end
  begin
     id 29
     name rfingers
     direction -1 -4.49012e-011 -4.15056e-026   
     length 0.631992   
     axis 2.64841e-014 -90 -90   XYZ
    dof rx
    limits (0.0 90.0)
  end
  begin
     id 30
     name rthumb
     direction -0.707107 -6.3496e-011 0.707107   
     length 0.907418   
     axis -90 -45 -2.85299e-015   XYZ
    dof rx rz
    limits (-45.0 45.0)
           (-45.0 45.0)
  end
:hierarchy
  begin
    root lhipjoint rhipjoint lowerback
    lhipjoint lfemur
    lfemur ltibia
    ltibia lfoot
    lfoot ltoes
    rhipjoint rfemur
    rfemur rtibia
    rtibia rfoot
    rfoot rtoes
    lowerback upperback
    upperback thorax
    thorax lowerneck lclavicle rclavicle
    lowerneck upperneck
    upperneck head
    lclavicle lhumerus
    lhumerus lradius
    lradius lwrist
    lwrist lhand lthumb
    lhand lfingers
    rclavicle rhumerus
    rhumerus rradius
    rradius rwrist
    rwrist rhand rthumb
    rhand rfingers
  end

#!OML:ASF E:\Style3\Style3.ASF
:FULLY-SPECIFIED
:DEGREES
1703
root 0.42582 17.848 0.700369 112.665 90.9886 96.7937
lowerback -11.7856 -2.48148 -0.463924
upperback -12.0653 -2.45719 1.75482
thorax -6.0547 -0.800069 1.91678
lowerneck -10.4048 -2.28541 -4.38312
upperneck 26.2794 -3.59653 6.90985
head 10.2857 -1.06999 2.82379
rclavicle 1.13307e-014 1.19271e-015
rhumerus 63.4856 34.0587 -33.1401
rradius 100.502
rwrist -50.5607
rhand -15.2309 10.9782
rfingers 7.12502
rthumb 10.9421 -18.7166
lclavicle 1.13307e-014 1.19271e-015
lhumerus 35.5608 -32.9494 43.8931
lradius 90.9769
lwrist 12.7205
lhand -3.96284 13.3349
lfingers 7.12502
lthumb 21.7896 42.1283
rfemur -15.0539 11.9132 18.6368
rtibia 14.6648
rfoot -14.2795 -20.6459
rtoes -15.0905
lfemur 0 0 0
ltibia 0
lfoot 0 0
ltoes 0
1704
root 0.422217 17.8474 0.698978 116.469 90.9635 100.617
lowerback -11.7813 -2.46115 -0.514085
upperback -12.0362 -2.43132 1.73218
thorax -6.02441 -0.786295 1.92214
lowerneck -10.4624 -2.3049 -4.34293
upperneck 26.3615 -3.60465 6.79897
head 10.325 -1.07987 2.77775
rclavicle -2.0773e-014 1.78906e-015
rhumerus 62.7028 34.9567 -33.0719
rradius 100.181
rwrist -50.6407
rhand -15.0922 11.1044
rfingers 7.12502
rthumb 11.0758 -18.5834
lclavicle -2.0773e-014 1.78906e-015
lhumerus 34.4848 -33.468 44.811
lradius 90.4599
lwrist 12.4957
lhand -2.12549 11.7098
lfingers 7.12502
lthumb 23.553 40.2876
rfemur -15.0825 11.8878 18.587
rtibia 14.7183
rfoot -14.3632 -20.5754
rtoes -14.8414
lfemur 0 0 0
ltibia 0
lfoot 0 0
ltoes 0
1705
root 0.418323 17.8475 0.698352 122.805 90.9088 107.006
lowerback -11.7847 -2.46523 -0.635468
upperback -11.9773 -2.43624 1.72178
thorax -5.95226 -0.784259 1.97723
lowerneck -10.5483 -2.29489 -4.26091
upperneck 26.4533 -3.56887 6.64646
head 10.3688 -1.06995 2.71476
rclavicle 1.65488e-014 -2.5842e-015
rhumerus 61.9611 35.8826 -33.042
rradius 100.001
rwrist -50.5297
rhand -14.5342 9.66094
rfingers 7.12502
rthumb 11.614 -19.9972
lclavicle 1.65488e-014 -2.5842e-015
lhumerus 33.3613 -34.0255 45.7562
lradius 90.1466
lwrist 12.4441
lhand -0.444595 11.0682
lfingers 7.12502
lthumb 25.1645 39.4294
rfemur -15.0745 11.9006 18.4869
rtibia 14.7542
rfoot -14.3848 -20.5732
rtoes -14.7621
lfemur 0 0 0
ltibia 0
lfoot 0 0
ltoes 0
1706
root 0.413872 17.8495 0.697879 127.538 90.9087 111.74
lowerback -11.8165 -2.47302 -0.693706
upperback -11.9541 -2.44467 1.73233
thorax -5.90588 -0.785358 2.01872
lowerneck -10.5046 -2.27261 -4.30891
upperneck 26.417 -3.52999 6.6581
head 10.3454 -1.05724 2.73118
rclavicle -6.95746e-016 -1.31198e-014
rhumerus 61.2498 37.056 -32.869
rradius 98.5603
rwrist -49.3893
rhand -13.5764 13.3657
rfingers 7.12502
rthumb 12.5375 -16.2382
lclavicle -6.95746e-016 -1.31198e-014
lhumerus 32.1663 -34.7595 46.7004
lradius 89.9507
lwrist 12.4831
lhand -0.640692 11.8405
lfingers 7.12502
lthumb 24.9766 40.228
rfemur -15.1373 11.9448 18.4346
rtibia 14.81
rfoot -14.389 -20.5619
rtoes -14.7714
lfemur 0 0 0
ltibia 0
lfoot 0 0
ltoes 0
1707
root 0.408076 17.8507 0.697845 126.871 90.9171 111.043
lowerback -11.798 -2.50909 -0.725989
upperback -11.9847 -2.48681 1.76333
thorax -5.94554 -0.801133 2.06782
lowerneck -10.4741 -2.25533 -4.40108
upperneck 26.4743 -3.5143 6.76735
head 10.3629 -1.04491 2.79021
rclavicle 1.30204e-014 1.03368e-014
rhumerus 60.387 38.4246 -32.7485
rradius 97.3362
rwrist -48.4756
rhand -12.9568 16.5667
rfingers 7.12502
rthumb 13.1348 -12.9996
lclavicle 1.30204e-014 1.03368e-014
lhumerus 30.8372 -35.559 47.7168
lradius 89.5105
lwrist 12.2422
lhand -3.28823 13.464
lfingers 7.12502
lthumb 22.4373 42.1807
rfemur -15.186 11.983 18.434
rtibia 14.8029
rfoot -14.3693 -20.5992
rtoes -14.8261
lfemur 0 0 0
ltibia 0
lfoot 0 0
ltoes 0
1708
root 0.402491 17.8519 0.698046 127.539 90.8625 111.68
lowerback -11.836 -2.52295 -0.826456
upperback -11.9905 -2.49795 1.73239
thorax -5.92781 -0.800367 2.08938
lowerneck -10.4632 -2.27541 -4.36271
upperneck 26.5405 -3.55746 6.79277
head 10.3879 -1.05556 2.78945
rclavicle -3.23025e-015 -1.03368e-014
rhumerus 59.0684 39.4004 -33.5284
rradius 97.7012
rwrist -47.2976
rhand -11.7946 10.8048
rfingers 7.12502
rthumb 14.2549 -18.686
lclavicle -3.23025e-015 -1.03368e-014
lhumerus 29.5376 -36.4932 48.7473
lradius 88.9844
lwrist 11.9151
lhand -5.27603 14.6934
lfingers 7.12502
lthumb 20.5282 43.6281
rfemur -15.1985 11.9993 18.3666
rtibia 14.7289
rfoot -14.3336 -20.6416
rtoes -14.6925
lfemur 0 0 0
ltibia 0
lfoot 0 0
ltoes 0
1709
root 0.397104 17.8524 0.697015 127.54 90.8778 111.692
lowerback -11.8818 -2.49498 -0.823088
upperback -11.9504 -2.46506 1.69683
thorax -5.86132 -0.787865 2.04987
lowerneck -10.4626 -2.31204 -4.30879
upperneck 26.5315 -3.62312 6.80167
head 10.3881 -1.07927 2.77516
rclavicle 4.32357e-015 6.55989e-015
rhumerus 58.1497 40.6398 -33.4947
rradius 97.1315
rwrist -47.5237
rhand -11.9905 10.5677
rfingers 7.12502
rthumb 14.0662 -18.9362
lclavicle 4.32357e-015 6.55989e-015
lhumerus 28.2309 -37.4594 49.7335
lradius 88.3557
lwrist 11.8594
lhand -5.44211 15.2616
lfingers 7.12502
lthumb 20.3686 44.2134
rfemur -15.1554 11.9912 18.3759
rtibia 14.6388
rfoot -14.3118 -20.5676
rtoes -14.5496
lfemur 0 0 0
ltibia 0
lfoot 0 0
ltoes 0
1710
root 0.39069 17.8545 0.696789 124.152 90.9392 108.3
lowerback -11.8828 -2.54178 -0.761068
upperback -11.9286 -2.53096 1.78651
thorax -5.83289 -0.822885 2.10461
lowerneck -10.4932 -2.28312 -4.47409
upperneck 26.545 -3.55568 6.83179
head 10.3981 -1.06166 2.823
rclavicle -1.28216e-014 1.55052e-014
rhumerus 57.3833 41.9772 -33.4327
rradius 96.2144
rwrist -47.26
rhand -11.5332 10.5294
rfingers 7.12502
rthumb 14.5068 -18.9434
lclavicle -1.28216e-014 1.55052e-014
lhumerus 26.6472 -38.2199 50.73
lradius 87.3933
lwrist 11.719
lhand -5.41833 15.3581
lfingers 7.12502
lthumb 20.3914 44.3074
rfemur -15.145 12.1393 18.4419
rtibia 14.5737
rfoot -14.2634 -20.7674
rtoes -14.5859
lfemur 0 0 0
ltibia 0
lfoot 0 0
ltoes 0
1711
root 0.383249 17.8573 0.697289 119.968 91.0175 104.08
lowerback -11.9511 -2.75751 -0.776945
upperback -11.891 -2.8091 2.11148
thorax -5.72668 -0.949973 2.43263
lowerneck -10.5627 -2.09955 -4.87931
upperneck 26.5343 -3.20617 6.81651
head 10.39 -0.946215 2.92912
rclavicle 4.17448e-015 -7.15625e-015
rhumerus 57.0753 43.6406 -33.0793
rradius 95.2455
rwrist -46.7866
rhand -11.4455 10.2186
rfingers 7.12502
rthumb 14.5913 -19.2482
lclavicle 4.17448e-015 -7.15625e-015
lhumerus 24.5444 -38.5853 52.0984
lradius 86.1759
lwrist 11.1026
lhand -5.48374 14.9229
lfingers 7.12502
lthumb 20.3286 43.8789
rfemur -15.1649 12.2243 18.5296
rtibia 14.4892
rfoot -14.2007 -20.8446
rtoes -14.5859
lfemur 0 0 0
ltibia 0
lfoot 0 0
ltoes 0
1712
root 0.379487 17.8571 0.694457 120.749 90.976 104.921
lowerback -12.0335 -2.978 -0.961757
upperback -11.7856 -3.09023 2.41429
thorax -5.5271 -1.07269 2.82769
lowerneck -10.6385 -1.9211 -5.19808
upperneck 26.538 -2.8532 6.69389
head 10.3842 -0.832331 2.98217
rclavicle 4.26393e-014 -3.57812e-015
rhumerus 56.692 45.4172 -32.7432
rradius 94.1821
rwrist -46.3901
rhand -11.825 10.0948
rfingers 7.12502
rthumb 14.2257 -19.3981
lclavicle 4.26393e-014 -3.57812e-015
lhumerus 22.3047 -38.8561 53.6766
lradius 84.9487
lwrist 10.2608
lhand -5.43598 15.0348
lfingers 7.12502
lthumb 20.3745 43.986
rfemur -15.1016 12.0063 18.5098
rtibia 14.4857
rfoot -14.1535 -20.6784
rtoes -14.9172
lfemur 0 0 0
ltibia 0
lfoot 0 0
ltoes 0
1713
root 0.374801 17.8567 0.69144 116.905 91.0159 101.128
lowerback -12.0801 -2.96618 -0.934343
upperback -11.7088 -3.08186 2.44355
thorax -5.41747 -1.07363 2.83946
lowerneck -10.592 -1.92856 -5.21325
upperneck 26.4618 -2.8491 6.64876
head 10.3464 -0.839475 2.96679
rclavicle -2.78299e-014 -1.39149e-014
rhumerus 55.3216 46.8687 -32.9809
rradius 92.9288
rwrist -45.6603
rhand -12.1103 10.2898
rfingers 7.12502
rthumb 13.9507 -19.2221
lclavicle -2.78299e-014 -1.39149e-014
lhumerus 20.5407 -39.6576 54.9577
lradius 83.4793
lwrist 9.61818
lhand -5.58013 15.3496
lfingers 7.12502
lthumb 20.2359 44.3155
rfemur -15.0931 11.7295 18.6128
rtibia 14.5535
rfoot -14.0697 -20.4931
rtoes -15.3528
lfemur 0 0 0
ltibia 0
lfoot 0 0
ltoes 0
1714
root 0.367988 17.8545 0.68968 114.929 90.9638 99.1926
lowerback -12.1628 -2.78836 -0.909646
upperback -11.5819 -2.86464 2.21133
thorax -5.257 -0.982931 2.59099
lowerneck -10.7052 -2.10805 -4.97246
upperneck 26.4185 -3.15559 6.65555
head 10.3711 -0.954686 2.88924
rclavicle -2.37548e-014 -4.77083e-015
rhumerus 53.41 47.8971 -33.4998
rradius 91.4265
rwrist -44.7056
rhand -12.2018 10.4672
rfingers 7.12502
rthumb 13.8625 -19.0508
lclavicle -2.37548e-014 -4.77083e-015
lhumerus 19.3732 -40.8565 55.8099
lradius 81.6913
lwrist 9.21994
lhand -6.15381 15.0672
lfingers 7.12502
lthumb 19.6845 44.0906
rfemur -15.0863 11.8414 18.5503
rtibia 14.5931
rfoot -14.2126 -20.5945
rtoes -14.8089
lfemur 0 0 0
ltibia 0
lfoot 0 0
ltoes 0
1715
root 0.362345 17.8538 0.687369 116.1 90.8948 100.426
lowerback -12.0714 -2.7245 -0.921406
upperback -11.5325 -2.78842 2.14471
thorax -5.25849 -0.949777 2.53559
lowerneck -10.8845 -2.17926 -5.02156
upperneck 26.5072 -3.24285 6.64795
head 10.4462 -0.997242 2.8863
rclavicle 1.20265e-014 -4.37326e-015
rhumerus 51.9342 49.2622 -33.6894
rradius 89.8841
rwrist -43.549
rhand -12.5692 10.547
rfingers 7.12502
rthumb 13.5084 -18.9949
lclavicle 1.20265e-014 -4.37326e-015
lhumerus 17.6282 -41.7047 57.0314
lradius 79.891
lwrist 8.49886
lhand -7.3066 15.0205
lfingers 7.12502
lthumb 18.5759 44.1535
rfemur -15.0411 11.7911 18.4728
rtibia 14.5985
rfoot -14.1843 -20.5511
rtoes -15.0003
lfemur 0 0 0
ltibia 0
lfoot 0 0
ltoes 0
1716
root 0.354155 17.8531 0.686333 110.761 90.9653 95.1529
lowerback -11.7746 -2.76733 -0.840482
upperback -11.5793 -2.85096 2.22963
thorax -5.46771 -0.980955 2.58778
lowerneck -11.02 -2.16292 -5.15246
upperneck 26.6467 -3.19075 6.65024
head 10.5231 -0.982346 2.9197
rclavicle 2.09718e-014 -1.03368e-014
rhumerus 50.7551 50.8234 -33.6978
rradius 88.2129
rwrist -42.2841
rhand -13.1466 10.9403
rfingers 7.12502
rthumb 12.9519 -18.6377
lclavicle 2.09718e-014 -1.03368e-014
lhumerus 15.4552 -42.1135 58.6308
lradius 78.0149
lwrist 7.55982
lhand -8.10423 15.2183
lfingers 7.12502
lthumb 17.8085 44.4229
rfemur -14.9948 11.8057 18.581
rtibia 14.6093
rfoot -14.1466 -20.6237
rtoes -15.2158
lfemur 0 0 0
ltibia 0
lfoot 0 0
ltoes 0
1717
root 0.345209 17.8522 0.685363 107.908 90.9636 92.4313
lowerback -11.5006 -2.74236 -0.874088
upperback -11.5502 -2.82562 2.2161
thorax -5.58501 -0.968727 2.60406
lowerneck -11.1639 -2.21092 -5.17946
upperneck 26.7476 -3.26193 6.68972
head 10.5953 -1.00941 2.93245
rclavicle -1.07344e-014 1.51076e-014
rhumerus 49.1036 52.1271 -34.0403
rradius 86.3549
rwrist -40.7586
rhand -13.3716 11.3153
rfingers 7.12502
rthumb 12.735 -18.2763
lclavicle -1.07344e-014 1.51076e-014
lhumerus 13.5023 -42.3005 60.1221
lradius 76.0746
lwrist 7.12928
lhand -7.40495 15.2608
lfingers 7.12502
lthumb 18.4813 44.4028
rfemur -14.8652 11.8516 18.6005
rtibia 14.5945
rfoot -14.1003 -20.7021
rtoes -15.2526
lfemur 0 0 0
ltibia 0
lfoot 0 0
ltoes 0
